<svg width="623" height="621" viewBox="0 0 623 621" fill="none" xmlns="http://www.w3.org/2000/svg">
<g filter="url(#filter0_b_3_170)">
<path d="M218.659 20.4634C230.708 4.10982 252.915 -0.956137 270.864 8.55408L287.587 17.415C299.975 23.9788 314.858 23.7577 327.046 16.8289L343.499 7.47531C361.158 -2.56373 383.505 1.84051 396.034 17.829L407.707 32.7259C416.355 43.7609 430.041 49.6125 443.993 48.2399L462.828 46.3869C483.043 44.3982 501.667 57.5111 506.61 77.2134L511.215 95.5704C514.627 109.169 524.75 120.081 538.054 124.502L556.014 130.47C575.291 136.876 586.971 156.43 583.473 176.439L580.213 195.082C577.799 208.892 582.608 222.979 592.964 232.429L606.944 245.186C621.949 258.878 624.666 281.493 613.331 298.349L602.771 314.055C594.948 325.689 593.612 340.513 599.229 353.359L606.812 370.699C614.95 389.31 608.234 411.075 591.023 421.864L574.988 431.917C563.109 439.363 555.859 452.363 555.766 466.382L555.64 485.307C555.505 505.62 540.517 522.771 520.406 525.627L501.668 528.288C487.788 530.26 475.877 539.187 470.09 551.956L462.277 569.194C453.891 587.695 433.223 597.267 413.689 591.697L395.489 586.506C382.007 582.662 367.495 585.972 357.014 595.284L342.866 607.854C327.68 621.345 304.906 621.683 289.326 608.649L274.81 596.505C264.058 587.509 249.454 584.63 236.092 588.874L218.054 594.602C198.694 600.751 177.751 591.796 168.82 573.552L160.498 556.554C154.334 543.962 142.164 535.393 128.231 533.835L109.422 531.731C89.2355 529.473 73.7449 512.775 73.0065 492.475L72.3186 473.562C71.8089 459.552 64.176 446.773 52.0816 439.683L35.7547 430.111C18.2313 419.838 10.8719 398.282 18.4538 379.437L25.5181 361.879C30.751 348.873 28.9754 334.095 20.8106 322.698L9.78848 307.313C-2.04141 290.8 0.00279979 268.115 14.5941 253.983L28.1891 240.817C38.2598 231.063 42.6487 216.84 39.8252 203.108L36.0136 184.57C31.9228 164.673 43.0171 144.781 62.0948 137.806L79.8699 131.307C93.037 126.493 102.831 115.285 105.838 101.591L109.896 83.1053C114.251 63.265 132.477 49.6048 152.743 50.9923L171.624 52.2851C185.611 53.2427 199.118 46.9873 207.433 35.7003L218.659 20.4634Z" fill="url(#paint0_radial_3_170)" fill-opacity="0.06"/>
<path d="M288.055 16.5313L271.332 7.67044C252.945 -2.07172 230.197 3.11779 217.854 19.8702L206.628 35.1072C198.515 46.1188 185.338 52.2217 171.693 51.2874L152.811 49.9946C132.051 48.5733 113.381 62.5666 108.919 82.8909L104.861 101.377C101.928 114.736 92.3725 125.671 79.5265 130.368L61.7514 136.866C42.2084 144.012 30.8435 164.389 35.0341 184.771L38.8457 203.309C41.6003 216.707 37.3185 230.583 27.4934 240.098L13.8984 253.265C-1.04879 267.741 -3.14285 290.98 8.97557 307.895L19.9977 323.28C27.9634 334.399 29.6956 348.817 24.5903 361.506L17.5261 379.064C9.7592 398.368 17.2981 420.45 35.2489 430.973L51.5758 440.545C63.3752 447.463 70.822 459.93 71.3192 473.598L72.0072 492.512C72.7636 513.306 88.6319 530.412 109.311 532.725L128.12 534.828C141.713 536.349 153.586 544.709 159.6 556.993L167.921 573.992C177.07 592.681 198.524 601.854 218.357 595.555L236.395 589.827C249.431 585.687 263.678 588.495 274.169 597.272L288.684 609.416C304.644 622.768 327.974 622.421 343.53 608.601L357.679 596.031C367.904 586.947 382.062 583.717 395.215 587.468L413.415 592.658C433.426 598.365 454.598 588.559 463.188 569.607L471 552.369C476.647 539.911 488.267 531.202 501.809 529.278L520.546 526.617C541.148 523.691 556.501 506.122 556.64 485.314L556.766 466.389C556.857 452.711 563.93 440.029 575.519 432.764L591.554 422.711C609.185 411.659 616.065 389.364 607.728 370.299L600.145 352.958C594.665 340.426 595.969 325.963 603.601 314.613L614.161 298.907C625.772 281.639 622.989 258.473 607.618 244.447L593.638 231.69C583.535 222.47 578.843 208.728 581.198 195.254L584.458 176.611C588.041 156.114 576.076 136.083 556.329 129.521L538.369 123.553C525.389 119.24 515.513 108.594 512.185 95.3271L507.58 76.97C502.517 56.7873 483.439 43.3545 462.73 45.3917L443.895 47.2447C430.283 48.5838 416.931 42.8749 408.495 32.1091L396.821 17.2122C383.986 0.833743 361.094 -3.67793 343.005 6.60598L326.552 15.9596C314.661 22.7194 300.141 22.935 288.055 16.5313Z" stroke="url(#paint1_linear_3_170)" stroke-opacity="0.26" stroke-width="2"/>
</g>
<defs>
<filter id="filter0_b_3_170" x="-3.88281" y="-3.88489" width="630.192" height="628.088" filterUnits="userSpaceOnUse" color-interpolation-filters="sRGB">
<feFlood flood-opacity="0" result="BackgroundImageFix"/>
<feGaussianBlur in="BackgroundImage" stdDeviation="2"/>
<feComposite in2="SourceAlpha" operator="in" result="effect1_backgroundBlur_3_170"/>
<feBlend mode="normal" in="SourceGraphic" in2="effect1_backgroundBlur_3_170" result="shape"/>
</filter>
<radialGradient id="paint0_radial_3_170" cx="0" cy="0" r="1" gradientUnits="userSpaceOnUse" gradientTransform="translate(181 105) rotate(50.009) scale(514.263 449.522)">
<stop stop-color="#FE5D76"/>
<stop offset="0.828125" stop-color="#7C6CBC"/>
<stop offset="1" stop-color="#007BFF"/>
</radialGradient>
<linearGradient id="paint1_linear_3_170" x1="132.5" y1="50" x2="351.5" y2="308" gradientUnits="userSpaceOnUse">
<stop stop-color="#FE546F"/>
<stop offset="1" stop-color="#007BFF"/>
</linearGradient>
</defs>
</svg>
